# xmcd
#
# Track frame offsets:
#	150
#	18372
#	30947
#	46954
#	58008
#	83163
#	94358
#	104508
#	120062
#	144126
#
# Disc length: 2094 seconds
#
# Revision: 1
# Processed by: cddbd v1.5.1PL2 Copyright (c) Steve Scherf et al.
# Submitted via: audiograbber 1.83.01
#
DISCID=70082c0a
DTITLE=J.J. CALE - SHADES
DYEAR=1900
DGENRE=
TTITLE0=Carry on
TTITLE1=Deep dark dungeon
TTITLE2=Wish had not said that
TTITLE3=Pack my jack
TTITLE4=Id you leave her
TTITLE5=Mama Dont
TTITLE6=Runaround
TTITLE7=What do you expect
TTITLE8=Love has been gone
TTITLE9=Cloudy day
EXTD=Schallplatte
EXTT0=
EXTT1=
EXTT2=
EXTT3=
EXTT4=
EXTT5=
EXTT6=
EXTT7=
EXTT8=
EXTT9=
PLAYORDER=
